<svg id="visual" viewBox="0 0 1200 500" width="1200" height="500" xmlns="http://www.w3.org/2000/svg" xmlns:xlink="http://www.w3.org/1999/xlink" version="1.1"><rect x="0" y="0" width="1200" height="500" fill="#001220"></rect><path d="M0 315L28.5 312.2C57 309.3 114 303.7 171.2 310.2C228.3 316.7 285.7 335.3 342.8 339.7C400 344 457 334 514.2 324.2C571.3 314.3 628.7 304.7 685.8 310.8C743 317 800 339 857.2 345.5C914.3 352 971.7 343 1028.8 344.8C1086 346.7 1143 359.3 1171.5 365.7L1200 372L1200 501L1171.5 501C1143 501 1086 501 1028.8 501C971.7 501 914.3 501 857.2 501C800 501 743 501 685.8 501C628.7 501 571.3 501 514.2 501C457 501 400 501 342.8 501C285.7 501 228.3 501 171.2 501C114 501 57 501 28.5 501L0 501Z" fill="#fcaf3c"></path><path d="M0 329L28.5 330.8C57 332.7 114 336.3 171.2 341.8C228.3 347.3 285.7 354.7 342.8 356.7C400 358.7 457 355.3 514.2 358C571.3 360.7 628.7 369.3 685.8 372C743 374.7 800 371.3 857.2 371.8C914.3 372.3 971.7 376.7 1028.8 378C1086 379.3 1143 377.7 1171.5 376.8L1200 376L1200 501L1171.5 501C1143 501 1086 501 1028.8 501C971.7 501 914.3 501 857.2 501C800 501 743 501 685.8 501C628.7 501 571.3 501 514.2 501C457 501 400 501 342.8 501C285.7 501 228.3 501 171.2 501C114 501 57 501 28.5 501L0 501Z" fill="#fc8a40"></path><path d="M0 387L28.5 386.2C57 385.3 114 383.7 171.2 380.3C228.3 377 285.7 372 342.8 371.5C400 371 457 375 514.2 378.8C571.3 382.7 628.7 386.3 685.8 389.7C743 393 800 396 857.2 401.5C914.3 407 971.7 415 1028.8 414.5C1086 414 1143 405 1171.5 400.5L1200 396L1200 501L1171.5 501C1143 501 1086 501 1028.8 501C971.7 501 914.3 501 857.2 501C800 501 743 501 685.8 501C628.7 501 571.3 501 514.2 501C457 501 400 501 342.8 501C285.7 501 228.3 501 171.2 501C114 501 57 501 28.5 501L0 501Z" fill="#f3664c"></path><path d="M0 408L28.5 410.7C57 413.3 114 418.7 171.2 420C228.3 421.3 285.7 418.7 342.8 417C400 415.3 457 414.7 514.2 420.2C571.3 425.7 628.7 437.3 685.8 439C743 440.7 800 432.3 857.2 429.7C914.3 427 971.7 430 1028.8 427C1086 424 1143 415 1171.5 410.5L1200 406L1200 501L1171.5 501C1143 501 1086 501 1028.8 501C971.7 501 914.3 501 857.2 501C800 501 743 501 685.8 501C628.7 501 571.3 501 514.2 501C457 501 400 501 342.8 501C285.7 501 228.3 501 171.2 501C114 501 57 501 28.5 501L0 501Z" fill="#e1435a"></path><path d="M0 437L28.5 439.2C57 441.3 114 445.7 171.2 446.8C228.3 448 285.7 446 342.8 444.8C400 443.7 457 443.3 514.2 444.3C571.3 445.3 628.7 447.7 685.8 448.7C743 449.7 800 449.3 857.2 449.7C914.3 450 971.7 451 1028.8 452.3C1086 453.7 1143 455.3 1171.5 456.2L1200 457L1200 501L1171.5 501C1143 501 1086 501 1028.8 501C971.7 501 914.3 501 857.2 501C800 501 743 501 685.8 501C628.7 501 571.3 501 514.2 501C457 501 400 501 342.8 501C285.7 501 228.3 501 171.2 501C114 501 57 501 28.5 501L0 501Z" fill="#c62368"></path></svg>