<svg id="visual" viewBox="0 0 1500 500" width="1500" height="500" xmlns="http://www.w3.org/2000/svg" xmlns:xlink="http://www.w3.org/1999/xlink" version="1.1"><rect x="0" y="0" width="1500" height="500" fill="#0e1c27"></rect><path d="M0 352L35.7 343.8C71.3 335.7 142.7 319.3 214.2 312.8C285.7 306.3 357.3 309.7 428.8 312.8C500.3 316 571.7 319 643 329.2C714.3 339.3 785.7 356.7 857 363.3C928.3 370 999.7 366 1071.2 363C1142.7 360 1214.3 358 1285.8 356.5C1357.3 355 1428.7 354 1464.3 353.5L1500 353L1500 501L1464.3 501C1428.7 501 1357.3 501 1285.8 501C1214.3 501 1142.7 501 1071.2 501C999.7 501 928.3 501 857 501C785.7 501 714.3 501 643 501C571.7 501 500.3 501 428.8 501C357.3 501 285.7 501 214.2 501C142.7 501 71.3 501 35.7 501L0 501Z" fill="#5be18c"></path><path d="M0 350L35.7 355.7C71.3 361.3 142.7 372.7 214.2 379.7C285.7 386.7 357.3 389.3 428.8 391C500.3 392.7 571.7 393.3 643 390C714.3 386.7 785.7 379.3 857 375C928.3 370.7 999.7 369.3 1071.2 369.3C1142.7 369.3 1214.3 370.7 1285.8 365.3C1357.3 360 1428.7 348 1464.3 342L1500 336L1500 501L1464.3 501C1428.7 501 1357.3 501 1285.8 501C1214.3 501 1142.7 501 1071.2 501C999.7 501 928.3 501 857 501C785.7 501 714.3 501 643 501C571.7 501 500.3 501 428.8 501C357.3 501 285.7 501 214.2 501C142.7 501 71.3 501 35.7 501L0 501Z" fill="#50c97b"></path><path d="M0 426L35.7 421.3C71.3 416.7 142.7 407.3 214.2 401.3C285.7 395.3 357.3 392.7 428.8 387.5C500.3 382.3 571.7 374.7 643 379.5C714.3 384.3 785.7 401.7 857 407.7C928.3 413.7 999.7 408.3 1071.2 407.3C1142.7 406.3 1214.3 409.7 1285.8 413C1357.3 416.3 1428.7 419.7 1464.3 421.3L1500 423L1500 501L1464.3 501C1428.7 501 1357.3 501 1285.8 501C1214.3 501 1142.7 501 1071.2 501C999.7 501 928.3 501 857 501C785.7 501 714.3 501 643 501C571.7 501 500.3 501 428.8 501C357.3 501 285.7 501 214.2 501C142.7 501 71.3 501 35.7 501L0 501Z" fill="#45b16b"></path><path d="M0 431L35.7 429.8C71.3 428.7 142.7 426.3 214.2 422.2C285.7 418 357.3 412 428.8 412.8C500.3 413.7 571.7 421.3 643 422.2C714.3 423 785.7 417 857 419.7C928.3 422.3 999.7 433.7 1071.2 438.8C1142.7 444 1214.3 443 1285.8 438C1357.3 433 1428.7 424 1464.3 419.5L1500 415L1500 501L1464.3 501C1428.7 501 1357.3 501 1285.8 501C1214.3 501 1142.7 501 1071.2 501C999.7 501 928.3 501 857 501C785.7 501 714.3 501 643 501C571.7 501 500.3 501 428.8 501C357.3 501 285.7 501 214.2 501C142.7 501 71.3 501 35.7 501L0 501Z" fill="#3a9a5b"></path><path d="M0 443L35.7 447.7C71.3 452.3 142.7 461.7 214.2 467C285.7 472.3 357.3 473.7 428.8 470.3C500.3 467 571.7 459 643 458.7C714.3 458.3 785.7 465.7 857 469.3C928.3 473 999.7 473 1071.2 472.2C1142.7 471.3 1214.3 469.7 1285.8 469.7C1357.3 469.7 1428.7 471.3 1464.3 472.2L1500 473L1500 501L1464.3 501C1428.7 501 1357.3 501 1285.8 501C1214.3 501 1142.7 501 1071.2 501C999.7 501 928.3 501 857 501C785.7 501 714.3 501 643 501C571.7 501 500.3 501 428.8 501C357.3 501 285.7 501 214.2 501C142.7 501 71.3 501 35.7 501L0 501Z" fill="#30844c"></path></svg>